<?xml version="1.0" encoding="UTF-8" standalone="no"?>
<!DOCTYPE svg PUBLIC "-//W3C//DTD SVG 1.1//EN" "http://www.w3.org/Graphics/SVG/1.1/DTD/svg11.dtd">
<svg version="1.1" xmlns="http://www.w3.org/2000/svg" xmlns:xlink="http://www.w3.org/1999/xlink" preserveAspectRatio="xMidYMid meet" viewBox="0 0 230 200" width="230" height="200"><defs><path d="M200.08 149.33C194.4 143.65 166.05 115.3 115 64.25C63.95 115.3 35.6 143.65 29.92 149.33C27.42 151.83 23.37 151.83 20.87 149.33C18.37 146.83 18.37 142.78 20.87 140.28C29.83 131.32 101.51 59.63 110.47 50.67C112.97 48.17 117.03 48.17 119.53 50.67C128.49 59.63 200.17 131.32 209.13 140.28C211.63 142.78 211.63 146.83 209.13 149.33C207.87 150.58 206.24 151.2 204.6 151.2C202.96 151.2 201.33 150.58 200.08 149.33Z" id="d1qpKjpM2r"></path></defs><g><g><use xlink:href="#d1qpKjpM2r" opacity="1" fill="#ffffff" fill-opacity="1"></use><g><use xlink:href="#d1qpKjpM2r" opacity="1" fill-opacity="0" stroke="#000000" stroke-width="1" stroke-opacity="0"></use></g></g></g></svg>